<svg width="9" height="13" viewBox="0 0 9 13" fill="none" xmlns="http://www.w3.org/2000/svg">
<path d="M3.64211 6.49999L7.91961 2.22249C8.14467 1.99609 8.27099 1.68984 8.27099 1.37061C8.27099 1.05139 8.14467 0.745135 7.91961 0.518739C7.80728 0.405484 7.67364 0.31559 7.52639 0.254245C7.37915 0.192899 7.22121 0.161316 7.0617 0.161316C6.90218 0.161316 6.74425 0.192899 6.597 0.254245C6.44975 0.31559 6.31611 0.405484 6.20378 0.518739L1.08045 5.64207C0.96719 5.7544 0.877297 5.88805 0.815952 6.03529C0.754606 6.18254 0.723022 6.34047 0.723022 6.49999C0.723022 6.6595 0.754606 6.81744 0.815952 6.96469C0.877297 7.11193 0.96719 7.24558 1.08045 7.35791L6.20378 12.5417C6.31669 12.6536 6.45059 12.7422 6.59781 12.8024C6.74503 12.8625 6.90267 12.893 7.0617 12.8921C7.22072 12.893 7.37836 12.8625 7.52558 12.8024C7.6728 12.7422 7.80671 12.6536 7.91961 12.5417C8.14467 12.3153 8.27099 12.009 8.27099 11.6898C8.27099 11.3706 8.14467 11.0643 7.91961 10.8379L3.64211 6.49999Z" fill="#898A8E"/>
</svg>
