<svg width="23" height="23" viewBox="0 0 23 23" fill="none" xmlns="http://www.w3.org/2000/svg">
<path d="M11.5 0.25C9.27497 0.25 7.09989 0.909801 5.24984 2.14597C3.39979 3.38213 1.95785 5.13914 1.10636 7.19481C0.254874 9.25048 0.0320869 11.5125 0.466171 13.6948C0.900254 15.8771 1.97171 17.8816 3.54505 19.455C5.1184 21.0283 7.12295 22.0998 9.30524 22.5338C11.4875 22.9679 13.7495 22.7451 15.8052 21.8936C17.8609 21.0422 19.6179 19.6002 20.854 17.7502C22.0902 15.9001 22.75 13.725 22.75 11.5C22.75 10.0226 22.459 8.55972 21.8937 7.19481C21.3283 5.8299 20.4996 4.58971 19.455 3.54505C18.4103 2.50039 17.1701 1.67172 15.8052 1.10636C14.4403 0.54099 12.9774 0.25 11.5 0.25V0.25ZM11.5 20.5C9.71997 20.5 7.97992 19.9722 6.49987 18.9832C5.01983 17.9943 3.86628 16.5887 3.18509 14.9442C2.5039 13.2996 2.32567 11.49 2.67294 9.74419C3.02021 7.99836 3.87737 6.39471 5.13604 5.13604C6.39472 3.87737 7.99836 3.0202 9.74419 2.67293C11.49 2.32567 13.2996 2.5039 14.9442 3.18508C16.5887 3.86627 17.9943 5.01983 18.9832 6.49987C19.9722 7.97991 20.5 9.71997 20.5 11.5C20.5 13.8869 19.5518 16.1761 17.864 17.864C16.1761 19.5518 13.887 20.5 11.5 20.5V20.5ZM16 10.375H12.625V7C12.625 6.70163 12.5065 6.41548 12.2955 6.20451C12.0845 5.99353 11.7984 5.875 11.5 5.875C11.2016 5.875 10.9155 5.99353 10.7045 6.20451C10.4935 6.41548 10.375 6.70163 10.375 7V10.375H7.00001C6.70164 10.375 6.41549 10.4935 6.20451 10.7045C5.99353 10.9155 5.87501 11.2016 5.87501 11.5C5.87501 11.7984 5.99353 12.0845 6.20451 12.2955C6.41549 12.5065 6.70164 12.625 7.00001 12.625H10.375V16C10.375 16.2984 10.4935 16.5845 10.7045 16.7955C10.9155 17.0065 11.2016 17.125 11.5 17.125C11.7984 17.125 12.0845 17.0065 12.2955 16.7955C12.5065 16.5845 12.625 16.2984 12.625 16V12.625H16C16.2984 12.625 16.5845 12.5065 16.7955 12.2955C17.0065 12.0845 17.125 11.7984 17.125 11.5C17.125 11.2016 17.0065 10.9155 16.7955 10.7045C16.5845 10.4935 16.2984 10.375 16 10.375Z" fill="#898A8E"/>
</svg>
