<svg width="9" height="13" viewBox="0 0 9 13" fill="none" xmlns="http://www.w3.org/2000/svg">
<path d="M5.35789 6.50001L1.08039 10.7775C0.855335 11.0039 0.729014 11.3102 0.729014 11.6294C0.729014 11.9486 0.855335 12.2549 1.08039 12.4813C1.19272 12.5945 1.32636 12.6844 1.47361 12.7458C1.62085 12.8071 1.77879 12.8387 1.9383 12.8387C2.09782 12.8387 2.25575 12.8071 2.403 12.7458C2.55025 12.6844 2.68389 12.5945 2.79622 12.4813L7.91956 7.35793C8.03281 7.2456 8.1227 7.11195 8.18405 6.96471C8.24539 6.81746 8.27698 6.65953 8.27698 6.50001C8.27698 6.3405 8.24539 6.18256 8.18405 6.03531C8.1227 5.88807 8.03281 5.75442 7.91956 5.64209L2.79622 0.458344C2.68332 0.346354 2.54941 0.257753 2.40219 0.197621C2.25497 0.137489 2.09733 0.107006 1.93831 0.107926C1.77928 0.107006 1.62164 0.137489 1.47442 0.197621C1.3272 0.257753 1.1933 0.346354 1.08039 0.458344C0.855336 0.68474 0.729014 0.990994 0.729014 1.31022C0.729014 1.62944 0.855336 1.9357 1.08039 2.16209L5.35789 6.50001Z" fill="#898A8E"/>
</svg>
