<svg width="9" height="10" viewBox="0 0 9 10" fill="none" xmlns="http://www.w3.org/2000/svg">
<path d="M0.76 9.36C0.76 9.16 0.84 8.98 1 8.82L4.02 5.76L3.36 4.82C3 4.31333 2.69333 3.9 2.44 3.58L1.74 2.6C1.56667 2.32 1.43333 2.07333 1.34 1.86C1.31333 1.75333 1.3 1.66667 1.3 1.6C1.3 1.41333 1.38667 1.23333 1.56 1.06C1.73333 0.886666 1.90667 0.8 2.08 0.8C2.37333 0.8 2.68 1.02667 3 1.48C3.32 1.93333 3.49333 2.18667 3.52 2.24C3.74667 2.56 3.98667 2.92667 4.24 3.34L5.1 4.62C5.59333 4.1 6.04 3.56 6.44 3C6.45333 2.97333 6.56667 2.78667 6.78 2.44C6.86 2.33333 6.94 2.21333 7.02 2.08C7.35333 1.57333 7.54 1.29333 7.58 1.24C7.80667 0.933333 8.08 0.779999 8.4 0.779999C8.54667 0.779999 8.68 0.853333 8.8 1C8.92 1.13333 8.98 1.26 8.98 1.38C8.98 2.03333 7.98667 3.49333 6 5.76C6.32 6.2 6.67333 6.64 7.06 7.08C7.58 7.66667 7.94667 8.11333 8.16 8.42C8.38667 8.71333 8.5 8.95333 8.5 9.14C8.5 9.32667 8.41333 9.49333 8.24 9.64C8.06667 9.78667 7.88 9.86 7.68 9.86C7.48 9.86 7.11333 9.57333 6.58 9C6.06 8.44 5.5 7.74667 4.9 6.92C3.98 7.90667 3.02667 8.87333 2.04 9.82C1.82667 9.94 1.62667 10 1.44 10C1.26667 10 1.11333 9.93333 0.98 9.8C0.833333 9.69333 0.76 9.54667 0.76 9.36Z" fill="#735C59" fill-opacity="0.5"/>
</svg>
